<svg width="32" height="24" viewBox="0 0 32 24" fill="none" xmlns="http://www.w3.org/2000/svg">
<path fill-rule="evenodd" clip-rule="evenodd" d="M27.7608 20.5C28.5662 20.5 29.2191 19.8471 29.2191 19.0417C29.2191 18.2363 28.5662 17.5833 27.7608 17.5833H4.45833C3.65292 17.5833 3 18.2363 3 19.0417C3 19.8471 3.65292 20.5 4.45833 20.5H27.7608ZM27.7608 13.2083C28.5662 13.2083 29.2191 12.5554 29.2191 11.75C29.2191 10.9446 28.5662 10.2917 27.7608 10.2917H4.45833C3.65292 10.2917 3 10.9446 3 11.75C3 12.5554 3.65292 13.2083 4.45833 13.2083H27.7608ZM3 4.45833C3 5.26375 3.65292 5.91667 4.45833 5.91667H27.7608C28.5662 5.91667 29.2191 5.26375 29.2191 4.45833C29.2191 3.65292 28.5662 3 27.7608 3H4.45834C3.65292 3 3 3.65292 3 4.45833Z" fill="white"/>
</svg>
